<?xml version="1.0" encoding="utf-8"?>
<!-- Generator: Adobe Illustrator 19.0.0, SVG Export Plug-In . SVG Version: 6.00 Build 0)  -->
<svg version="1.1" id="Camada_1" xmlns="http://www.w3.org/2000/svg" xmlns:xlink="http://www.w3.org/1999/xlink" x="0px" y="0px"
	 viewBox="0 0 24.2 23.2" style="enable-background:new 0 0 24.2 23.2;" xml:space="preserve">
<style type="text/css">
	.st0{fill:#2B2B2B;}
	.st1{fill:#FFFDFD;}
	.st2{fill:#FFFFFF;}
</style>
<rect id="XMLID_40_" class="st0" width="24.2" height="23.2"/>
<g id="XMLID_168_">
	<g id="_x34__18_">
		<g id="XMLID_170_">
			<path id="XMLID_171_" class="st1" d="M13.4,7.8V6.9l0-0.7H10l0,0.7v1l-2,0v1.5l7.5,0.1V7.9L13.4,7.8z M12.7,7.5h-2V7.2V6.9h2
				l0,0.3L12.7,7.5L12.7,7.5z M8,17h7.5v-1.4v-5.4H8V17z M13.1,11.3c0-0.2,0.3-0.3,0.3-0.3l0.3,0.3v4.1l-0.3,0.3l-0.3-0.3L13.1,11.3
				L13.1,11.3z M11.4,11.3l0.3-0.3l0.3,0.3v4.1l-0.3,0.3l-0.3-0.3V11.3z M9.7,11.3l0.3-0.3l0.3,0.3v4.1L10,15.7l-0.3-0.3V11.3z"/>
		</g>
	</g>
</g>
<rect id="XMLID_50_" x="35.3" y="-0.7" class="st0" width="24.2" height="23.2"/>
<rect id="XMLID_60_" x="0.7" y="29.2" class="st2" width="24.2" height="23.2"/>
<g id="XMLID_186_">
	<g id="XMLID_187_">
		<path id="XMLID_188_" class="st1" d="M53.3,8l-1.1,1.1l-2.3-2.3L49,7.7l2.3,2.3l-7,7c0,0-2.8,0.6-2.8,0.5
			c-0.1-0.1,0.5-2.8,0.5-2.8l9-9c0.1-0.1,0.3-0.1,0.5,0l1.8,1.8C53.4,7.7,53.4,7.9,53.3,8z"/>
	</g>
</g>
<polygon id="XMLID_166_" class="st0" points="12.7,47.9 7.3,43.1 10.5,43.2 10.5,36.8 15.3,36.8 15.3,43.1 18.2,43.1 "/>
<rect id="XMLID_42_" x="35.3" y="28.2" class="st2" width="24.2" height="23.2"/>
<g id="XMLID_180_">
	<g id="loop_x5F_alt3">
		<g id="XMLID_181_">
			<path id="XMLID_182_" class="st0" d="M43.3,39l6.1,0v2l3-3l-3-3v2h-5.3l-2.3,0v4h1.5V39z"/>
		</g>
	</g>
	<g id="XMLID_167_">
		<g id="loop_x5F_alt3_1_">
			<g id="XMLID_183_">
				<path id="XMLID_184_" class="st0" d="M50.5,42.6l-6.1,0v-2l-3,3l3,3v-2h5.3l2.3,0v-4h-1.5V42.6z"/>
			</g>
		</g>
	</g>
</g>
<rect id="XMLID_41_" x="0.7" y="58.5" class="st0" width="24.2" height="23.2"/>
<polygon id="XMLID_237_" class="st2" points="12.7,62.1 5.3,69 9.7,68.9 9.7,78 16.3,78 16.3,69 20.2,69 "/>
</svg>
