<?xml version="1.0" encoding="utf-8"?>
<!-- Generator: Adobe Illustrator 19.0.0, SVG Export Plug-In . SVG Version: 6.00 Build 0)  -->
<svg version="1.1" id="Camada_1" xmlns="http://www.w3.org/2000/svg" xmlns:xlink="http://www.w3.org/1999/xlink" x="0px" y="0px"
	 viewBox="0 0 25 30" style="enable-background:new 0 0 25 30;" xml:space="preserve">
<style type="text/css">
	.st0{fill:#2B2B2B;}
	.st1{fill:#FFFFFF;}
</style>
<rect id="XMLID_3_" class="st0" width="25" height="30"/>
<path id="XMLID_1_" class="st1" d="M11.1,1.5c0,0,0.6,0.9,0.7,1.4c0.3,1.2,0.7,3.3,0.7,5.1c0.1,1.9,0.2,3.9,0.3,5.8
	c0,0.2,0,0.3,0.1,0.4c0.1,0.1,0.3,0.2,0.5,0.3c0.9,0.3,1.6,1,2,1.8c0.5,0.8,0.7,1.7,0.9,2.6c0.2,1.3,0.7,2.6,1.3,3.8
	c0.1,0.2,0.2,0.4,0.3,0.5c0.2,0.2,0.4,0.3,0.7,0.4c0.5,0.3,1,0.7,1.1,1.1s0.1,0.7,0,0.8c-0.1,0.8-1.5,2-3,2.4s-2.1,0.5-2.9,0.7
	c-0.8,0.1-1.5,0.2-2.3,0.2c-1.6,0-3.3-0.1-4.5-1.2c-0.2-0.2-0.3-0.4-0.3-0.6c0-0.2,0.1-1,0.3-1.5c0.8-1.4,1.3-3.1,1-4.7
	C8.2,20.4,8.1,20,8,19.5c-0.1-1.4,0.6-2.8,1.6-3.9c0.2-0.2,0.5-0.4,0.7-0.6c0.1-0.1,0-0.3,0-0.4c0-0.8,0.1-0.8,0-1.3
	c-0.3-2.2-2.2-5-2.8-7.8C7.1,2.9,7.9,2,8.2,1.6c0.3-0.4,0.7-0.7,1.6-0.8C10.6,0.8,10.8,1.1,11.1,1.5z"/>
</svg>
