<?xml version="1.0" encoding="utf-8"?>
<!-- Generator: Adobe Illustrator 19.0.0, SVG Export Plug-In . SVG Version: 6.00 Build 0)  -->
<svg version="1.1" id="Camada_1" xmlns="http://www.w3.org/2000/svg" xmlns:xlink="http://www.w3.org/1999/xlink" x="0px" y="0px"
	 viewBox="0 0 100 100" style="enable-background:new 0 0 100 100;" xml:space="preserve">
<style type="text/css">
	.st0{fill:#2B2B2B;}
	.st1{fill:#FFFFFF;}
</style>
<rect id="XMLID_17_" class="st0" width="100" height="100"/>
<path id="XMLID_1_" class="st1" d="M88.3,24.7H10.6c-2.8,0-5.1-2.3-5.1-5.1v-2.4c0-2.8,2.3-5.1,5.1-5.1h77.7c2.8,0,5.1,2.3,5.1,5.1
	v2.4C93.4,22.5,91.1,24.7,88.3,24.7z"/>
<path id="XMLID_2_" class="st1" d="M89.3,55.7H11.6c-2.8,0-5.1-2.3-5.1-5.1v-2.4c0-2.8,2.3-5.1,5.1-5.1h77.7c2.8,0,5.1,2.3,5.1,5.1
	v2.4C94.4,53.5,92.1,55.7,89.3,55.7z"/>
<path id="XMLID_4_" class="st1" d="M88.8,91.1H11.2c-2.8,0-5.1-2.3-5.1-5.1v-2.4c0-2.8,2.3-5.1,5.1-5.1h77.7c2.8,0,5.1,2.3,5.1,5.1
	V86C93.9,88.8,91.6,91.1,88.8,91.1z"/>
</svg>
