<?xml version="1.0" encoding="utf-8"?>
<!-- Generator: Adobe Illustrator 19.0.0, SVG Export Plug-In . SVG Version: 6.00 Build 0)  -->
<svg version="1.1" id="Camada_1" xmlns="http://www.w3.org/2000/svg" xmlns:xlink="http://www.w3.org/1999/xlink" x="0px" y="0px"
	 viewBox="-37 39.8 24.2 23.2" style="enable-background:new -37 39.8 24.2 23.2;" xml:space="preserve">
<style type="text/css">
	.st0{fill:#2B2B2B;}
	.st1{fill:#FFFDFD;}
</style>
<rect id="XMLID_41_" x="-37" y="39.8" class="st0" width="24.2" height="23.2"/>
<g id="XMLID_168_">
	<g id="_x34__18_">
		<g id="XMLID_170_">
			<path id="XMLID_171_" class="st1" d="M-22,44v-2v-1.4h-6.7V42v2h-3.9v2.9l14.7,0.2V44H-22z M-23.4,43.4h-3.9v-0.6V42h3.9v0.6
				V43.4L-23.4,43.4z M-32.6,62h14.7v-2.7V48.7h-14.7V62z M-22.6,50.7c0-0.4,0.6-0.6,0.6-0.6l0.6,0.6v8l-0.6,0.6l-0.6-0.6V50.7
				L-22.6,50.7z M-25.9,50.7l0.6-0.6l0.6,0.6v8l-0.6,0.6l-0.6-0.6V50.7z M-29.3,50.7l0.6-0.6l0.6,0.6v8l-0.6,0.8l-0.6-0.6V50.7z"/>
		</g>
	</g>
</g>
</svg>
